<?xml version="1.0" encoding="UTF-8"?>
<svg id="Layer_1" data-name="Layer 1" xmlns="http://www.w3.org/2000/svg" xmlns:xlink="http://www.w3.org/1999/xlink" viewBox="0 0 934.99 345.95">
  <defs>
    <style>
      .cls-1 {
        fill: url(#linear-gradient);
      }

      .cls-1, .cls-2 {
        stroke-width: 0px;
      }

      .cls-2 {
        fill: #fff;
      }
    </style>
    <linearGradient id="linear-gradient" x1="508.28" y1="33.23" x2="694.96" y2="219.91" gradientUnits="userSpaceOnUse">
      <stop offset="0" stop-color="#ee3c70"/>
      <stop offset="1" stop-color="#fbb36b"/>
    </linearGradient>
  </defs>
  <path class="cls-1" d="M640.12,62.2c38.67-8.03,80.21-5.76,100.93,24.3,24.93,36.18,8.77,86.28-24.32,110.15-34.13,24.61-65.65,22.18-121.34-3.97l-38.39,48.16c-9.51,11.93-28.53,2.11-24.31-12.55l18.22-63.31-110.83-63.54,200.04-39.24Z"/>
  <g>
    <path class="cls-2" d="M293.52,214.19c-1.8,21.78-12.37,35.83-36.21,35.83-2.58-6.83-2.45-13.79.13-20.62h8.51v-28.22l3.87-59.41c9.79-1.29,19.2-1.29,28.48,0-2.06,9.02-4.25,64.31-4.77,72.43Z"/>
    <path class="cls-2" d="M371.88,197.18c-1.55,20.88-16.5,34.28-37.37,34.28s-33.64-13.66-32.09-34.28c1.55-20.88,16.5-34.28,37.25-34.28s33.77,13.66,32.22,34.28ZM331.29,197.05l-1.16,26.42c0,1.68.39,2.84,2.58,2.58,6.44-.77,9.79-11.34,10.31-29l.9-26.16c0-1.55-.26-2.83-2.58-2.45-6.06,1.03-9.41,11.21-10.05,28.61Z"/>
    <path class="cls-2" d="M440.44,186.22c-3.09,9.79-21.26,8.89-26.55,0,1.93-6.83,2.71-10.95,2.06-17.78-9.41,0-8.89,7.22-10.31,23.71-.64,7.6.39,16.62,11.21,18.56,10.05,1.93,18.82-4.12,22.04-10.05,3.87,18.94-10.57,31.7-31.57,30.8-21.01-.9-32.22-14.56-30.67-36.99,1.42-19.72,11.73-31.7,36.08-31.7,15.85,0,32.74,7.6,27.71,23.46Z"/>
    <path class="cls-2" d="M515.19,197.18c-1.55,20.88-16.5,34.28-37.37,34.28s-33.64-13.66-32.09-34.28c1.55-20.88,16.5-34.28,37.24-34.28s33.77,13.66,32.22,34.28ZM474.6,197.05l-1.16,26.42c0,1.68.39,2.84,2.58,2.58,6.44-.77,9.79-11.34,10.31-29l.9-26.16c0-1.55-.26-2.83-2.58-2.45-6.06,1.03-9.41,11.21-10.05,28.61Z"/>
  </g>
</svg>